<?xml version="1.0" encoding="utf-8"?>
<!-- Generator: Adobe Illustrator 17.1.0, SVG Export Plug-In . SVG Version: 6.00 Build 0)  -->
<!DOCTYPE svg PUBLIC "-//W3C//DTD SVG 1.1//EN" "http://www.w3.org/Graphics/SVG/1.1/DTD/svg11.dtd">
<svg version="1.1" id="图层_1" xmlns="http://www.w3.org/2000/svg" xmlns:xlink="http://www.w3.org/1999/xlink" x="0px" y="0px"
	 width="70px" height="70px" viewBox="0 0 70 70" enable-background="new 0 0 70 70" xml:space="preserve">
<g>
	<rect fill="none" width="70" height="70"/>
	<path opacity="0.5" fill="#B4B4B4" enable-background="new    " d="M64.167,35c0,21.609-7.555,29.167-29.167,29.167
		C13.393,64.167,5.833,56.609,5.833,35c0-21.607,7.56-29.167,29.167-29.167C56.61,5.833,64.167,13.393,64.167,35z"/>
</g>
<g enable-background="new    ">
	<path fill="#FFFFFF" d="M41.234,41.938c-1.031,0-1.547-0.547-1.547-1.641c0-1.063,0.516-1.594,1.547-1.594s1.547,0.531,1.547,1.594
		C42.781,41.391,42.266,41.938,41.234,41.938z M41.234,51.078c-1.031,0-1.547-0.547-1.547-1.641c0-1.063,0.516-1.594,1.547-1.594
		s1.547,0.531,1.547,1.594C42.781,50.531,42.266,51.078,41.234,51.078z"/>
</g>
<g enable-background="new    ">
	<path fill="#FFFFFF" d="M53.125,52.588c-1.563-2.525-2.344-5.226-2.344-8.101c0-2.75,0.781-5.462,2.344-8.138h2.109
		c-1.438,2.625-2.156,5.338-2.156,8.138c0,2.775,0.719,5.476,2.156,8.101H53.125z"/>
</g>
</svg>
